# AST/ASF file generated using VICON BodyLanguage
# -----------------------------------------------
:version 1.10
:name VICON
:units
  mass 1.0
  length 0.45
  angle deg
:documentation
   .ast/.asf automatically generated from VICON data using
   VICON BodyBuilder and BodyLanguage model FoxedUp or BRILLIANT.MOD
:root
   order TX TY TZ RX RY RZ
   axis XYZ
   position 0 0 0  
   orientation 0 0 0 
:bonedata
  begin
     id 1 
     name lhipjoint
     direction 0.693937 -0.600361 0.397515 
     length 2.37164 
     axis 0 0 0  XYZ
  end
  begin
     id 2 
     name lfemur
     direction 0.34202 -0.939693 0  
     length 6.18497  
     axis 0 0 20  XYZ
    dof rx ry rz
    limits (-160.0 20.0)
           (-70.0 70.0)
           (-60.0 70.0)
  end
  begin
     id 3 
     name ltibia
     direction 0.34202 -0.939693 0   
     length 6.91601   
     axis 0 0 20   XYZ
    dof rx
    limits (-10.0 170.0)
  end
  begin
     id 4 
     name lfoot
     direction 0.0978718 -0.2689 0.958182   
     length 1.81453   
     axis -90 7.62852e-016 20   XYZ
    dof rx rz
    limits (-45.0 90.0)
           (-70.0 20.0)
  end
  begin
     id 5 
     name ltoes
     direction 1.53569e-011 -4.21951e-011 1   
     length 0.912052   
     axis -90 7.62852e-016 20   XYZ
    dof rx
    limits (-90.0 20.0)
  end
  begin
     id 6 
     name rhipjoint
     direction -0.643996 -0.637876 0.422354   
     length 2.23216  
     axis 0 0 0  XYZ 
  end
  begin
     id 7 
     name rfemur
     direction -0.34202 -0.939693 0   
     length 6.15404   
     axis 0 0 -20   XYZ
    dof rx ry rz
    limits (-160.0 20.0)
           (-70.0 70.0)
           (-70.0 60.0)
  end
  begin
     id 8 
     name rtibia
     direction -0.34202 -0.939693 0   
     length 6.86744   
     axis 0 0 -20   XYZ
    dof rx
    limits (-10.0 170.0)
 end
 begin
     id 9 
     name rfoot
     direction -0.118701 -0.326127 0.937844   
     length 1.9243  
     axis -90 -7.62852e-016 -20   XYZ
    dof rx rz
    limits (-45.0 90.0)
           (-20.0 70.0)
  end
  begin
     id 10 
     name rtoes
     direction -1.5356e-011 -4.2181e-011 1   
     length 0.958865   
     axis -90 -7.62852e-016 -20   XYZ
    dof rx
    limits (-90.0 20.0)
  end
  begin
     id 11 
     name lowerback
     direction 0.0310826 0.968686 -0.246334   
     length 2.00021   
     axis 0 0 0   XYZ
    dof rx ry rz
    limits (-20.0 45.0)
           (-30.0 30.0)
           (-30.0 30.0)
  end
  begin
     id 12 
     name upperback
     direction -0.0152834 0.999474 -0.0286152   
     length 2.03728   
     axis 0 0 0   XYZ
    dof rx ry rz
    limits (-20.0 45.0)
           (-30.0 30.0)
           (-30.0 30.0)
  end
  begin
     id 13 
     name thorax
     direction -0.0323701 0.996236 0.0804149   
     length 2.16   
     axis 0 0 0   XYZ
    dof rx ry rz
    limits (-20.0 45.0)
           (-30.0 30.0)
           (-30.0 30.0)
  end
  begin
     id 14 
     name lowerneck
     direction 0.0307935 0.982251 0.185027   
     length 1.43558   
     axis 0 0 0   XYZ
    dof rx ry rz
    limits (-20.0 45.0)
           (-30.0 30.0)
           (-30.0 30.0)
  end
  begin
     id 15 
     name upperneck
     direction -0.0927153 0.994775 0.0427454   
     length 1.44603   
     axis 0 0 0   XYZ
    dof rx ry rz
    limits (-20.0 45.0)
           (-30.0 30.0)
           (-30.0 30.0)
  end
  begin
     id 16
     name head
     direction -0.0341265 0.999406 -0.00472033  
     length 1.45931  
     axis 0 0 0   XYZ
    dof rx ry rz
    limits (-20.0 45.0)
           (-30.0 30.0)
           (-30.0 30.0)
  end
  begin
     id 17 
     name lclavicle
     direction 0.820755 0.555306 -0.134151  
     length 2.66075  
     axis 0 0 0   XYZ
    dof ry rz
    limits (-20.0 10.0)
           (0.0 20.0)
  end
  begin
     id 18 
     name lhumerus
     direction 1 -4.48971e-011 5.24853e-027   
     length 5.0546   
     axis -180 -30 -90   XYZ
    dof rx ry rz
    limits (-60.0 90.0)
           (-90.0 90.0)
           (-90.0 90.0)
  end
  begin
     id 19
     name lradius
     direction 1 -4.48971e-011 2.76575e-028   
     length 3.39013   
     axis -180 -30 -90   XYZ
    dof rx
    limits (-10.0 170.0)
  end
  begin
     id 20
     name lwrist
     direction 1 -4.48939e-011 -2.27826e-027   
     length 1.69507   
     axis 2.17013e-015 90 90   XYZ
    dof ry
    limits (-180.0 0.0)
 end
  begin
     id 21 
     name lhand
     direction 1 -4.49009e-011 -4.55652e-027   
     length 0.572425   
     axis 2.90745e-015 90 90   XYZ
    dof rx rz
    limits (-90.0 90.0)
           (-45.0 45.0)
  end
  begin
     id 22 
     name lfingers
     direction 1 -4.48955e-011 -9.11303e-027   
     length 0.461504   
     axis 5.81489e-015 90 90   XYZ
    dof rx
    limits (0.0 90.0)
  end
  begin
     id 23
     name lthumb
     direction 0.707107 -6.34929e-011 0.707107   
     length 0.66263   
     axis -90 45 2.85299e-015   XYZ
    dof rx rz
    limits (-45.0 45.0)
           (-45.0 45.0)
  end
  begin
     id 24 
     name rclavicle
     direction -0.754477 0.632921 -0.173712   
     length 2.73081  
     axis 0 0 0   XYZ 
    dof ry rz
    limits (-10.0 20.0)
           (-20.0 0.0)
  end
  begin
     id 25 
     name rhumerus
     direction -1 -4.48969e-011 5.1496e-027  
     length 5.0701   
     axis -180 30 90   XYZ
    dof rx ry rz
    limits (-90.0 60.0)
           (-90.0 90.0)
           (-90.0 90.0)
  end
  begin
     id 26 
     name rradius
     direction -1 -4.48967e-011 -7.15624e-028   
     length 3.14957   
     axis -180 30 90   XYZ
    dof rx
    limits (-10.0 170.0)
  end
  begin
     id 27 
     name rwrist
     direction -1 -4.48938e-011 -2.27826e-027   
     length 1.57479   
     axis 2.17013e-015 -90 -90   XYZ
    dof ry
    limits (-180.0 0.0)
  end
  begin
     id 28
     name rhand
     direction -1 -4.49008e-011 -4.55652e-027   
     length 0.718191   
     axis 2.90745e-015 -90 -90   XYZ
    dof rx rz
    limits (-90.0 90.0)
           (-45.0 45.0)
  end
  begin
     id 29
     name rfingers
     direction -1 -4.48953e-011 -9.11303e-027   
     length 0.579024   
     axis 5.81489e-015 -90 -90   XYZ
    dof rx
    limits (0.0 90.0)
  end
  begin
     id 30
     name rthumb
     direction -0.707107 -6.34937e-011 0.707107   
     length 0.831366   
     axis -90 -45 -2.85299e-015   XYZ
    dof rx rz
    limits (-45.0 45.0)
           (-45.0 45.0)
  end
:hierarchy
  begin
    root lhipjoint rhipjoint lowerback
    lhipjoint lfemur
    lfemur ltibia
    ltibia lfoot
    lfoot ltoes
    rhipjoint rfemur
    rfemur rtibia
    rtibia rfoot
    rfoot rtoes
    lowerback upperback
    upperback thorax
    thorax lowerneck lclavicle rclavicle
    lowerneck upperneck
    upperneck head
    lclavicle lhumerus
    lhumerus lradius
    lradius lwrist
    lwrist lhand lthumb
    lhand lfingers
    rclavicle rhumerus
    rhumerus rradius
    rradius rwrist
    rwrist rhand rthumb
    rhand rfingers
  end

#!OML:ASF H:\Male1\Project 1\Capture day 1\Session 1\Male1.ASF
:FULLY-SPECIFIED
:DEGREES
146
root -15.0886 14.7039 1.9722 183.363 5.67708 -178.763
lowerback 24.2136 -1.75151 -0.721755
upperback 12.2411 0.433681 -2.2721
thorax 0.0307285 1.45802 -2.13415
lowerneck -8.14807 5.32047 7.4184
upperneck -10.9205 7.10918 -8.35243
head -1.51961 3.86115 -3.9528
rclavicle 9.14409e-015 -1.07344e-014
rhumerus 8.17293 -9.76753 -49.8401
rradius 113.224
rwrist -16.4796
rhand -35.5874 -1.68898
rfingers 7.12502
rthumb -8.71164 -31.4892
lclavicle 9.14409e-015 -1.07344e-014
lhumerus 3.05222 14.6716 30.6159
lradius 108.637
lwrist -9.22197
lhand -27.5511 15.6469
lfingers 7.12502
lthumb -0.952323 45.6245
rfemur -29.9454 1.35816 12.5069
rtibia 41.6991
rfoot -15.1168 -20.3456
rtoes -24.1895
lfemur -27.7069 -17.2028 -1.94158
ltibia 48.4015
lfoot -12.6674 18.8499
ltoes -2.90109
147
root -14.9083 14.7412 1.98426 183.303 5.3848 -178.659
lowerback 24.2062 -1.81349 -0.541288
upperback 12.176 0.370374 -2.17755
thorax -0.0438809 1.42285 -2.12185
lowerneck -8.11988 5.27501 7.23619
upperneck -10.6975 7.04356 -8.33073
head -1.46158 3.82204 -3.90616
rclavicle -1.66979e-014 -8.74653e-015
rhumerus 8.19878 -9.5947 -49.5543
rradius 113.111
rwrist -16.5795
rhand -35.5499 -1.79091
rfingers 7.12502
rthumb -8.6755 -31.5926
lclavicle -1.66979e-014 -8.74653e-015
lhumerus 3.11476 14.465 30.631
lradius 108.627
lwrist -9.21204
lhand -27.4534 15.598
lfingers 7.12502
lthumb -0.85795 45.5761
rfemur -29.5298 1.28554 13.3996
rtibia 41.32
rfoot -15.4974 -20.4621
rtoes -23.3916
lfemur -28.3202 -17.0457 -2.43146
ltibia 49.5233
lfoot -13.3053 18.2738
ltoes -3.45237
148
root -14.7375 14.7687 1.99747 183.258 5.12411 -178.555
lowerback 24.2148 -1.87584 -0.369166
upperback 12.1077 0.304005 -2.07525
thorax -0.129777 1.38484 -2.09611
lowerneck -8.10888 5.24548 7.05124
upperneck -10.4891 7.00004 -8.3316
head -1.40298 3.79542 -3.86616
rclavicle -1.15295e-014 -1.59028e-015
rhumerus 8.25262 -9.43349 -49.2632
rradius 113.012
rwrist -16.6923
rhand -35.5287 -1.94369
rfingers 7.12502
rthumb -8.65497 -31.7463
lclavicle -1.15295e-014 -1.59028e-015
lhumerus 3.14272 14.3138 30.6676
lradius 108.665
lwrist -9.20509
lhand -27.3727 15.5659
lfingers 7.12502
lthumb -0.780055 45.5442
rfemur -29.2324 1.20463 14.2495
rtibia 41.066
rfoot -15.881 -20.5581
rtoes -22.6843
lfemur -29.0012 -16.6648 -3.20422
ltibia 50.8102
lfoot -14.4207 17.3249
ltoes -5.18682
149
root -14.5759 14.7881 2.01182 183.24 4.88353 -178.479
lowerback 24.2221 -1.93118 -0.206336
upperback 12.0475 0.248399 -1.98584
thorax -0.20521 1.35346 -2.08118
lowerneck -8.14608 5.21584 6.89513
upperneck -10.2932 6.95676 -8.34045
head -1.33928 3.76949 -3.83331
rclavicle 1.74931e-014 9.54166e-015
rhumerus 8.28912 -9.35312 -48.9769
rradius 112.932
rwrist -16.7779
rhand -35.5223 -2.076
rfingers 7.12502
rthumb -8.64887 -31.8788
lclavicle 1.74931e-014 9.54166e-015
lhumerus 3.213 14.1999 30.7391
lradius 108.736
lwrist -9.20679
lhand -27.3636 15.5709
lfingers 7.12502
lthumb -0.771263 45.5492
rfemur -29.0682 1.12062 15.0267
rtibia 40.9522
rfoot -16.2772 -20.657
rtoes -22.1089
lfemur -29.726 -16.0735 -4.28816
ltibia 52.1594
lfoot -15.8152 16.2574
ltoes -7.25824
150
root -14.423 14.801 2.02708 183.262 4.64951 -178.431
lowerback 24.2135 -1.979 -0.0375349
upperback 11.9995 0.208304 -1.91946
thorax -0.258718 1.3326 -2.09746
lowerneck -8.23715 5.17706 6.78413
upperneck -10.1125 6.90179 -8.34116
head -1.27144 3.73777 -3.80544
rclavicle 4.77083e-015 9.54166e-015
rhumerus 8.28423 -9.3856 -48.7137
rradius 112.874
rwrist -16.8091
rhand -35.5395 -2.17038
rfingers 7.12502
rthumb -8.66543 -31.9725
lclavicle 4.77083e-015 9.54166e-015
lhumerus 3.36868 14.1057 30.8519
lradius 108.822
lwrist -9.21927
lhand -27.4572 15.6001
lfingers 7.12502
lthumb -0.861705 45.5781
rfemur -29.0392 1.03916 15.7337
rtibia 40.973
rfoot -16.6958 -20.7838
rtoes -21.6857
lfemur -30.4777 -15.2974 -5.65527
ltibia 53.4572
lfoot -17.2309 15.2775
ltoes -9.00864
151
root -14.2781 14.8085 2.04306 183.33 4.40291 -178.413
lowerback 24.186 -2.02705 0.148344
upperback 11.9621 0.175111 -1.88294
thorax -0.29113 1.31855 -2.15667
lowerneck -8.36564 5.12654 6.71705
upperneck -9.95424 6.83225 -8.3227
head -1.20536 3.69887 -3.77945
rclavicle 2.78299e-015 -5.1684e-015
rhumerus 8.23037 -9.53637 -48.4937
rradius 112.828
rwrist -16.7758
rhand -35.5598 -2.19615
rfingers 7.12502
rthumb -8.68498 -31.9975
lclavicle 2.78299e-015 -5.1684e-015
lhumerus 3.6209 14.0147 31.004
lradius 108.909
lwrist -9.23624
lhand -27.6481 15.6372
lfingers 7.12502
lthumb -1.04601 45.6143
rfemur -29.1435 0.947735 16.3697
rtibia 41.1354
rfoot -17.1584 -20.9368
rtoes -21.3847
lfemur -31.2359 -14.3892 -7.26593
ltibia 54.5806
lfoot -18.5272 14.4643
ltoes -10.6148
152
root -14.1403 14.8102 2.05942 183.434 4.13607 -178.435
lowerback 24.1592 -2.08863 0.307464
upperback 11.9298 0.120484 -1.85644
thorax -0.318542 1.29372 -2.20626
lowerneck -8.5159 5.08276 6.62767
upperneck -9.82422 6.77669 -8.28451
head -1.14542 3.66919 -3.74225
rclavicle 1.19271e-015 1.19271e-014
rhumerus 8.18618 -9.729 -48.3147
rradius 112.79
rwrist -16.7154
rhand -35.5701 -2.18099
rfingers 7.12502
rthumb -8.69491 -31.9819
lclavicle 1.19271e-015 1.19271e-014
lhumerus 3.8895 13.9548 31.1946
lradius 108.996
lwrist -9.25467
lhand -27.8739 15.6649
lfingers 7.12502
lthumb -1.26408 45.6409
rfemur -29.3675 0.846927 16.9271
rtibia 41.4351
rfoot -17.6903 -21.088
rtoes -21.1137
lfemur -31.9746 -13.4148 -9.07789
ltibia 55.4315
lfoot -19.6327 13.6801
ltoes -12.4569
153
root -14.009 14.806 2.07591 183.577 3.8547 -178.548
lowerback 24.1398 -2.1563 0.375789
upperback 11.8901 0.0365981 -1.84659
thorax -0.357897 1.25011 -2.21544
lowerneck -8.65037 5.05268 6.5102
upperneck -9.73356 6.74426 -8.24048
head -1.10059 3.65374 -3.69876
rclavicle 1.31198e-014 5.96354e-015
rhumerus 8.15509 -9.92483 -48.176
rradius 112.771
rwrist -16.6545
rhand -35.5637 -2.17398
rfingers 7.12502
rthumb -8.68879 -31.9752
lclavicle 1.31198e-014 5.96354e-015
lhumerus 4.15095 13.9201 31.4159
lradius 109.077
lwrist -9.26318
lhand -28.0787 15.6908
lfingers 7.12502
lthumb -1.46189 45.6655
rfemur -29.7232 0.721146 17.3509
rtibia 41.8836
rfoot -18.323 -21.1751
rtoes -20.7656
lfemur -32.6786 -12.4759 -11.0794
ltibia 55.9358
lfoot -20.5914 12.6025
ltoes -14.2256
154
root -13.8826 14.7953 2.09219 183.736 3.55939 -178.601
lowerback 24.1539 -2.23971 0.490196
upperback 11.8488 -0.0564867 -1.82306
thorax -0.416194 1.2037 -2.23453
lowerneck -8.75339 5.03342 6.40303
upperneck -9.68414 6.72752 -8.2101
head -1.07271 3.64778 -3.66378
rclavicle 1.94809e-014 1.39149e-014
rhumerus 8.09921 -10.1246 -48.0735
rradius 112.78
rwrist -16.6184
rhand -35.5585 -2.18823
rfingers 7.12502
rthumb -8.68378 -31.9896
lclavicle 1.94809e-014 1.39149e-014
lhumerus 4.43156 13.8826 31.6512
lradius 109.15
lwrist -9.24937
lhand -28.2508 15.7212
lfingers 7.12502
lthumb -1.62818 45.6947
rfemur -30.1609 0.59436 17.8147
rtibia 42.4672
rfoot -19.0559 -21.1999
rtoes -20.2977
lfemur -33.3151 -11.6275 -13.0517
ltibia 56.0832
lfoot -21.4144 11.0557
ltoes -16.1007
155
root -13.7615 14.7779 2.10808 183.913 3.26467 -178.684
lowerback 24.1938 -2.31724 0.569286
upperback 11.8002 -0.149534 -1.81353
thorax -0.494571 1.15606 -2.24902
lowerneck -8.819 5.01931 6.33236
upperneck -9.67739 6.71657 -8.20317
head -1.06277 3.64575 -3.64618
rclavicle 2.78299e-015 7.55382e-015
rhumerus 8.00186 -10.3365 -47.9884
rradius 112.81
rwrist -16.6011
rhand -35.5555 -2.19597
rfingers 7.12502
rthumb -8.68083 -31.9975
lclavicle 2.78299e-015 7.55382e-015
lhumerus 4.74857 13.8236 31.8913
lradius 109.215
lwrist -9.2191
lhand -28.3944 15.7305
lfingers 7.12502
lthumb -1.76685 45.703
rfemur -30.7002 0.440748 18.2225
rtibia 43.1773
rfoot -19.817 -21.1447
rtoes -19.7927
lfemur -33.8802 -10.9662 -15.0334
ltibia 55.8868
lfoot -22.1354 9.17735
ltoes -17.9901
